<svg version="1.1" xmlns="http://www.w3.org/2000/svg" xmlns:xlink="http://www.w3.org/1999/xlink" width="48" height="48" viewBox="0,0,256,256"><g fill="#62c66e" fill-rule="nonzero" stroke="none" stroke-width="1" stroke-linecap="butt" stroke-linejoin="miter" stroke-miterlimit="10" stroke-dasharray="" stroke-dashoffset="0" font-family="none" font-weight="none" font-size="none" text-anchor="none" style="mix-blend-mode: normal"><g transform="translate(0,256) scale(0.26667,0.26667)"><path d="M80,-590v-190c0,-16 6,-30 18,-42c12,-12 26,-18 42,-18h680c16,0 30,6 42,18c12,12 18,26 18,42v190h-60v-190h-680v190zM140,-240c-16,0 -30,-6 -42,-18c-12,-12 -18,-26 -18,-42v-230h60v230h680v-230h60v230c0,16 -6,30 -18,42c-12,12 -26,18 -42,18zM40,-120v-60h880v60zM480,-540zM80,-530v-60h240c5.44067,0 10.63433,1.33333 15.581,4c4.946,2.66667 8.75233,6.66667 11.419,12l55,112l131,-231c2.66667,-5.33333 6.5,-9.16667 11.5,-11.5c5,-2.33333 10.20633,-3.5 15.619,-3.5c5.41267,0 10.57933,1.16667 15.5,3.5c4.92067,2.33333 8.71433,6.16667 11.381,11.5l50.553,103h242.447v60h-261c-5.5,0 -10.75,-1.33333 -15.75,-4c-5,-2.66667 -8.75,-6.66667 -11.25,-12l-34,-69l-131,229c-2.482,5.33333 -6.20533,9.33333 -11.17,12c-4.96467,2.66667 -10.17767,4 -15.639,4c-5.46067,0 -10.691,-1.33333 -15.691,-4c-5,-2.66667 -8.83333,-6.66667 -11.5,-12l-72,-144z"></path></g></g></svg>